<svg id="Capa_1" enable-background="new 0 0 512 512" height="512" viewBox="0 0 512 512" width="512" xmlns="http://www.w3.org/2000/svg"><g><g><path d="m329.63 472.175-24.544-82.834h-98.172l-24.544 82.834z" fill="#d0cee7"/></g><g><path d="m379.24 504.5h-246.48c-4.463 0-8.081-3.618-8.081-8.081v-16.163c0-4.463 3.618-8.081 8.081-8.081h246.48c4.463 0 8.081 3.618 8.081 8.081v16.163c0 4.463-3.618 8.081-8.081 8.081z" fill="#efecef"/></g><g><path d="m379.24 472.175h-34.794c4.463 0 8.081 3.618 8.081 8.081v16.163c0 4.463-3.618 8.081-8.081 8.081h34.794c4.463 0 8.081-3.618 8.081-8.081v-16.163c0-4.463-3.618-8.081-8.081-8.081z" fill="#dddaec"/></g><g><path d="m504.5 328.732h-497v-290.927c0-16.737 13.568-30.305 30.305-30.305h436.39c16.737 0 30.305 13.568 30.305 30.305z" fill="#bed8fb"/></g><g><path d="m474.195 7.5h-31.097c16.737 0 30.305 13.568 30.305 30.305v290.927h31.097v-290.927c0-16.737-13.568-30.305-30.305-30.305z" fill="#9dc6fb"/></g><g><path d="m397.423-2.602h32.325v117.179h-32.325z" fill="#5392f9" transform="matrix(0 1 -1 0 469.573 -357.598)"/></g><g><path d="m474.195 389.341h-436.39c-16.737 0-30.305-13.568-30.305-30.305v-30.305h497v30.305c0 16.737-13.568 30.305-30.305 30.305z" fill="#efecef"/></g><g><path d="m473.799 328.732v30.305c0 16.737-13.568 30.305-30.305 30.305h30.701c16.737 0 30.305-13.568 30.305-30.305v-30.305z" fill="#dddaec"/></g><g><g><path d="m201.451 134.78h32.325v161.626h-32.325z" fill="#ffe07d"/></g><g><path d="m136.801 175.187h32.325v121.22h-32.325z" fill="#b3e59f"/></g><g><path d="m266.102 175.187h32.325v121.22h-32.325z" fill="#e4936b"/></g><g><path d="m72.15 74.171h32.325v222.236h-32.325z" fill="#e27f86"/></g></g><g><path d="m415.606 239.837h32.325v80.813h-32.325z" fill="#e27f86" transform="matrix(0 1 -1 0 712.012 -151.524)"/></g><g><path d="m474.2 0h-436.4c-20.843 0-37.8 16.957-37.8 37.8v32.33c0 4.143 3.358 7.5 7.5 7.5s7.5-3.357 7.5-7.5v-32.33c0-12.572 10.228-22.8 22.8-22.8h436.4c12.572 0 22.8 10.228 22.8 22.8v213.83c0 4.143 3.358 7.5 7.5 7.5s7.5-3.357 7.5-7.5v-213.83c0-20.843-16.957-37.8-37.8-37.8z"/><path d="m504.5 279.13c-4.142 0-7.5 3.357-7.5 7.5v34.602h-482v-216.102c0-4.143-3.358-7.5-7.5-7.5s-7.5 3.357-7.5 7.5v253.91c0 20.843 16.957 37.8 37.8 37.8h159.07l-20.098 67.83h-44.012c-8.591 0-15.58 6.993-15.58 15.59v16.16c0 8.591 6.989 15.58 15.58 15.58h246.48c8.591 0 15.58-6.989 15.58-15.58v-16.16c0-8.597-6.989-15.59-15.58-15.59h-44.012l-20.098-67.83h159.07c20.843 0 37.8-16.957 37.8-37.8v-72.41c0-4.143-3.358-7.5-7.5-7.5zm-184.917 185.54h-82.453c-4.142 0-7.5 3.357-7.5 7.5s3.358 7.5 7.5 7.5h142.11c.319 0 .58.265.58.59v16.16c0 .32-.26.58-.58.58h-246.48c-.319 0-.58-.26-.58-.58v-16.16c0-.325.26-.59.58-.59h69.37c4.142 0 7.5-3.357 7.5-7.5s-3.358-7.5-7.5-7.5h-9.713l20.098-67.83h86.972zm154.617-82.83h-436.4c-12.572 0-22.8-10.228-22.8-22.8v-22.809h482v22.809c0 12.572-10.228 22.8-22.8 22.8z"/><path d="m39.825 62.63c-4.142 0-7.5 3.357-7.5 7.5v226.276c0 4.143 3.358 7.5 7.5 7.5h290.927c4.142 0 7.5-3.357 7.5-7.5s-3.358-7.5-7.5-7.5h-24.825v-113.72c0-4.143-3.358-7.5-7.5-7.5h-32.325c-4.142 0-7.5 3.357-7.5 7.5v113.72h-17.325v-154.126c0-4.143-3.358-7.5-7.5-7.5h-32.325c-4.142 0-7.5 3.357-7.5 7.5v154.126h-17.325v-113.72c0-4.143-3.358-7.5-7.5-7.5h-32.325c-4.142 0-7.5 3.357-7.5 7.5v113.72h-17.325v-214.735c0-4.143-3.358-7.5-7.5-7.5h-32.327c-4.142 0-7.5 3.357-7.5 7.5v214.735h-17.325v-218.776c0-4.143-3.358-7.5-7.5-7.5zm233.777 120.057h17.325v106.22h-17.325zm-64.651-40.407h17.325v146.626h-17.325zm-64.65 40.407h17.325v106.22h-17.325zm-64.651-101.016h17.325v207.235h-17.325z"/><path d="m479.675 39.825c0-4.143-3.358-7.5-7.5-7.5h-117.179c-4.142 0-7.5 3.357-7.5 7.5v32.325c0 4.143 3.358 7.5 7.5 7.5h117.179c4.142 0 7.5-3.357 7.5-7.5zm-15 24.825h-102.179v-17.325h102.179z"/><path d="m472.175 256.581h-80.813c-4.142 0-7.5 3.357-7.5 7.5v32.325c0 4.143 3.358 7.5 7.5 7.5h80.813c4.142 0 7.5-3.357 7.5-7.5v-32.325c0-4.143-3.358-7.5-7.5-7.5zm-7.5 32.325h-65.813v-17.325h65.813z"/><path d="m472.175 96.976h-64.65c-4.142 0-7.5 3.357-7.5 7.5s3.358 7.5 7.5 7.5h64.65c4.142 0 7.5-3.357 7.5-7.5s-3.358-7.5-7.5-7.5z"/><path d="m354.996 111.976h20.203c4.142 0 7.5-3.357 7.5-7.5s-3.358-7.5-7.5-7.5h-20.203c-4.142 0-7.5 3.357-7.5 7.5s3.358 7.5 7.5 7.5z"/><path d="m472.175 129.301h-20.203c-4.142 0-7.5 3.357-7.5 7.5s3.358 7.5 7.5 7.5h20.203c4.142 0 7.5-3.357 7.5-7.5s-3.358-7.5-7.5-7.5z"/><path d="m354.996 144.301h64.65c4.142 0 7.5-3.357 7.5-7.5s-3.358-7.5-7.5-7.5h-64.65c-4.142 0-7.5 3.357-7.5 7.5s3.358 7.5 7.5 7.5z"/><path d="m354.996 176.626h117.179c4.142 0 7.5-3.357 7.5-7.5s-3.358-7.5-7.5-7.5h-117.179c-4.142 0-7.5 3.357-7.5 7.5s3.358 7.5 7.5 7.5z"/><path d="m472.175 193.951h-76.772c-4.142 0-7.5 3.357-7.5 7.5s3.358 7.5 7.5 7.5h76.772c4.142 0 7.5-3.357 7.5-7.5s-3.358-7.5-7.5-7.5z"/></g></g></svg>